Coordinates
version=1
nRows=39
nColumns=38
inDegrees=no

Units are S.I. units (second, meters, Newtons, ...)
If the header above contains a line with 'inDegrees', this indicates whether rotational values are in degrees (yes) or radians (no).

endheader
time	pelvis_tilt	pelvis_list	pelvis_rotation	pelvis_tx	pelvis_ty	pelvis_tz	hip_flexion_r	hip_adduction_r	hip_rotation_r	knee_angle_r	ankle_angle_r	subtalar_angle_r	mtp_angle_r	hip_flexion_l	hip_adduction_l	hip_rotation_l	knee_angle_l	ankle_angle_l	subtalar_angle_l	mtp_angle_l	lumbar_extension	lumbar_bending	lumbar_rotation	arm_flex_r	arm_add_r	arm_rot_r	elbow_flex_r	pro_sup_r	wrist_flex_r	wrist_dev_r	arm_flex_l	arm_add_l	arm_rot_l	elbow_flex_l	pro_sup_l	wrist_flex_l	wrist_dev_l
0	0.141305	-0.193092	-0.637947	-2.20173	1.02042	-0.65169	0.023839	-0.0549605	0.0153471	0.289727	-0.0259368	0	0	-0.249359	-0.0228882	-0.256946	0.0515385	-0.0315885	0	0	-0.326985	0.0369697	-0.119917	0.214535	-0.0497813	0.0549702	0.167573	1.42662	0	0	0.0155356	-0.16323	-0.0225017	0.327495	1.39754	0	0
0.00833333	0.134516	-0.191851	-0.640889	-2.20109	1.02012	-0.649799	0.0309604	-0.0455755	0.0111199	0.293338	-0.0261151	0	0	-0.245161	-0.0270822	-0.258199	0.0507727	-0.0304113	0	0	-0.321253	0.037924	-0.116133	0.207183	-0.0513261	0.0505818	0.176035	1.41974	0	0	0.0200553	-0.164937	-0.0518164	0.330047	1.41022	0	0
0.0166667	0.132865	-0.189031	-0.640512	-2.20119	1.02012	-0.648149	0.0337515	-0.0398085	0.00696752	0.295281	-0.0232451	0	0	-0.241386	-0.0282595	-0.259625	0.053824	-0.0283856	0	0	-0.319555	0.0348684	-0.116931	0.203649	-0.0501573	0.039452	0.178904	1.42497	0	0	0.0224651	-0.168521	-0.0373985	0.325503	1.41768	0	0
0.025	0.131764	-0.185743	-0.640591	-2.20121	1.02002	-0.646244	0.0350771	-0.0344512	0.00479163	0.295303	-0.0173995	0	0	-0.239088	-0.028251	-0.260603	0.0549155	-0.0277099	0	0	-0.316363	0.0310713	-0.115938	0.199192	-0.0492815	0.0304689	0.180334	1.42967	0	0	0.0252618	-0.172861	-0.0235812	0.321724	1.41894	0	0
0.0333333	0.131832	-0.183492	-0.63946	-2.20096	1.01975	-0.644631	0.0334157	-0.029652	0.000792778	0.292177	-0.0125755	0	0	-0.239405	-0.0278591	-0.259359	0.0542063	-0.0261744	0	0	-0.313898	0.0286874	-0.117553	0.195426	-0.0492333	0.0304497	0.181231	1.42789	0	0	0.0278921	-0.175882	-0.0162232	0.316224	1.42022	0	0
0.0416667	0.130842	-0.181887	-0.637615	-2.20046	1.01968	-0.643074	0.0314987	-0.0230479	-0.00127082	0.288549	-0.00552084	0	0	-0.240324	-0.0283714	-0.256847	0.0515267	-0.0255067	0	0	-0.312521	0.0271732	-0.117648	0.191078	-0.049705	0.0189844	0.182686	1.43309	0	0	0.0324434	-0.178037	-0.0175981	0.310625	1.42377	0	0
0.05	0.128902	-0.180475	-0.636886	-2.19969	1.01944	-0.641411	0.029817	-0.0157032	0.00146739	0.282891	-0.00246884	0	0	-0.241013	-0.0292158	-0.256688	0.0482212	-0.0259516	0	0	-0.309111	0.0269333	-0.117013	0.185547	-0.0518804	0.0258789	0.18471	1.40338	0	0	0.0351878	-0.180102	-0.0193179	0.309449	1.40127	0	0
0.0583333	0.127345	-0.17656	-0.635191	-2.19975	1.01908	-0.639547	0.0290332	-0.00973832	0.0054101	0.276352	0.00311141	0	0	-0.238181	-0.0292648	-0.255697	0.0479622	-0.025871	0	0	-0.305512	0.0235183	-0.115834	0.184051	-0.0500297	-0.022053	0.178272	1.4598	0	0	0.040763	-0.183583	-0.0264312	0.305792	1.41129	0	0
0.0666667	0.125913	-0.173638	-0.633793	-2.19957	1.01863	-0.637832	0.0272812	-0.00375196	0.0113646	0.269484	0.00765635	0	0	-0.237796	-0.0293721	-0.253838	0.0451762	-0.0262113	0	0	-0.303596	0.0204246	-0.116632	0.178233	-0.0492198	-0.0142694	0.185432	1.45052	0	0	0.0443307	-0.186927	-0.0245642	0.301605	1.41742	0	0
0.075	0.125992	-0.169571	-0.628877	-2.19923	1.01839	-0.636423	0.024127	-0.000402758	0.0187624	0.261552	0.00860405	0	0	-0.237887	-0.028147	-0.249887	0.0414486	-0.0276495	0	0	-0.301801	0.0169561	-0.119126	0.174953	-0.0497248	-0.0342468	0.182854	1.46223	0	0	0.04941	-0.189623	-0.0192524	0.295079	1.42277	0	0
0.0833333	0.126894	-0.166874	-0.627323	-2.19794	1.01818	-0.634671	0.0176172	0.00180808	0.0314243	0.25145	0.00908037	0	0	-0.241095	-0.0256951	-0.246221	0.0375781	-0.0290221	0	0	-0.299408	0.0142115	-0.119535	0.166483	-0.0520508	-0.00642512	0.189933	1.40811	0	0	0.0503995	-0.191118	-0.0116698	0.293604	1.40178	0	0
0.0916667	0.129334	-0.161809	-0.622592	-2.19736	1.018	-0.633174	0.0131478	-0.000703195	0.0394514	0.243128	0.0046538	0	0	-0.241555	-0.0218715	-0.241139	0.036324	-0.0318776	0	0	-0.297917	0.0088944	-0.120971	0.163354	-0.0507704	-0.0339703	0.187429	1.44154	0	0	0.0568782	-0.193254	-0.0165746	0.287639	1.41711	0	0
0.1	0.130868	-0.157308	-0.620031	-2.19636	1.01779	-0.631484	0.00848794	-0.00332347	0.0505187	0.235052	-0.00812899	0	0	-0.242964	-0.0184093	-0.237384	0.0336844	-0.0344867	0	0	-0.295104	0.00459315	-0.122056	0.158662	-0.0523786	-0.0372468	0.185935	1.44545	0	0	0.0613716	-0.194666	-0.0272878	0.284587	1.41517	0	0
0.108333	0.13157	-0.151639	-0.617965	-2.19521	1.01764	-0.629728	0.00609279	-0.0071801	0.0599219	0.229284	-0.0220983	0	0	-0.243852	-0.0140417	-0.23265	0.0298602	-0.0369035	0	0	-0.290881	-0.000215705	-0.122729	0.15408	-0.0542048	-0.0476556	0.18214	1.45663	0	0	0.0634233	-0.195319	-0.036873	0.282653	1.42792	0	0
0.116667	0.130777	-0.145268	-0.612659	-2.19508	1.01731	-0.628411	0.00903072	-0.0104348	0.0620753	0.227687	-0.0302311	0	0	-0.238718	-0.0120333	-0.227555	0.0314333	-0.0361886	0	0	-0.287443	-0.00484284	-0.125262	0.151033	-0.0540775	-0.0575733	0.179585	1.46212	0	0	0.0661719	-0.196989	-0.0387627	0.28266	1.4468	0	0
0.125	0.129312	-0.141494	-0.612739	-2.19362	1.01696	-0.626264	0.00870007	-0.0113463	0.0686834	0.223717	-0.0335787	0	0	-0.240298	-0.0100329	-0.22707	0.0250891	-0.0413741	0	0	-0.28195	-0.00684723	-0.122742	0.14435	-0.0566359	-0.058717	0.180365	1.45953	0	0	0.0701459	-0.195928	-0.0991585	0.289574	1.47648	0	0
0.133333	0.129206	-0.13954	-0.610243	-2.19225	1.01688	-0.624225	0.00526009	-0.0112278	0.0735471	0.218582	-0.0356673	0	0	-0.24551	-0.00871788	-0.216955	0.0181348	-0.0433637	0	0	-0.277743	-0.0074753	-0.12236	0.138915	-0.0588581	-0.0571616	0.177682	1.45259	0	0	0.0697347	-0.194256	-0.0680298	0.27879	1.44988	0	0
0.141667	0.129922	-0.139653	-0.602728	-2.19195	1.01719	-0.622747	0.00094586	-0.00927206	0.0733121	0.214444	-0.0371579	0	0	-0.246014	-0.0120979	-0.216707	0.0183319	-0.0473086	0	0	-0.28003	-0.0075203	-0.125777	0.134926	-0.0595284	-0.0565972	0.177866	1.44529	0	0	0.0749062	-0.196638	-0.0869332	0.283436	1.43912	0	0
0.15	0.13035	-0.13837	-0.597781	-2.19084	1.01744	-0.620817	-0.00252095	-0.0092251	0.072029	0.210999	-0.0380261	0	0	-0.251345	-0.0119508	-0.205691	0.0120836	-0.0479453	0	0	-0.277955	-0.0079641	-0.127348	0.127383	-0.0614686	-0.0283121	0.182164	1.40411	0	0	0.0727525	-0.196348	-0.0780602	0.28344	1.45167	0	0
0.158333	0.129711	-0.13798	-0.590389	-2.18989	1.01767	-0.619021	-0.00518597	-0.00803037	0.0652839	0.208726	-0.0385709	0	0	-0.253174	-0.0147873	-0.202507	0.00841157	-0.0510064	0	0	-0.276721	-0.00662901	-0.127842	0.126699	-0.0628906	-0.0749159	0.169328	1.45831	0	0	0.0772343	-0.196159	-0.090094	0.283939	1.4705	0	0
0.166667	0.127384	-0.138511	-0.585903	-2.18789	1.01776	-0.616597	-0.00960441	-0.0055985	0.0600273	0.203882	-0.0380469	0	0	-0.257784	-0.0179559	-0.198102	0.00133438	-0.0532103	0	0	-0.271128	-0.00326423	-0.128539	0.119555	-0.0657751	-0.0679352	0.168344	1.45466	0	0	0.076625	-0.195378	-0.118938	0.291448	1.49468	0	0
0.175	0.125826	-0.137991	-0.581027	-2.18626	1.01808	-0.614365	-0.0145775	-0.00446971	0.0549019	0.197423	-0.0405322	0	0	-0.261522	-0.0202308	-0.192716	0	-0.0567409	0	0	-0.266659	-0.00156752	-0.128311	0.111428	-0.0680779	-0.0563913	0.170145	1.43614	0	0	0.0730802	-0.193322	-0.10919	0.294573	1.47714	0	0
0.183333	0.123973	-0.138625	-0.577798	-2.18428	1.01842	-0.612144	-0.0206125	-0.00243239	0.0508323	0.190527	-0.0413646	0	0	-0.266367	-0.0229896	-0.188899	0	-0.0531408	0	0	-0.262745	0.000962036	-0.127774	0.103883	-0.0724508	-0.0419242	0.169031	1.40272	0	0	0.075825	-0.193527	-0.11394	0.29467	1.4594	0	0
0.191667	0.120355	-0.143336	-0.574018	-2.182	1.01877	-0.610404	-0.0276408	0.00350592	0.0435315	0.183331	-0.0438642	0	0	-0.270596	-0.0299573	-0.19055	0	-0.051649	0	0	-0.260211	0.00918645	-0.119712	0.0985412	-0.0777058	-0.0969125	0.160655	1.46549	0	0	0.0788946	-0.188543	-0.133851	0.300194	1.48632	0	0
0.2	0.119268	-0.143914	-0.568316	-2.1819	1.01912	-0.608728	-0.0298991	0.00588883	0.0356953	0.180679	-0.0452936	0	0	-0.270227	-0.0341139	-0.185766	0	-0.0517394	0	0	-0.259028	0.0112033	-0.120569	0.0981768	-0.0787435	-0.0996618	0.154037	1.46714	0	0	0.0822155	-0.189676	-0.133543	0.304269	1.48814	0	0
0.208333	0.116239	-0.145749	-0.566274	-2.17948	1.01933	-0.606417	-0.0369615	0.00981721	0.033898	0.171426	-0.0452843	0	0	-0.276271	-0.0379189	-0.185105	0	-0.0524823	0	0	-0.254506	0.0157752	-0.116003	0.0907698	-0.0830135	-0.112092	0.152413	1.47786	0	0	0.0811977	-0.186565	-0.139728	0.308465	1.49144	0	0
0.216667	0.11376	-0.146274	-0.560545	-2.17903	1.0194	-0.604973	-0.0396373	0.0128885	0.027832	0.165947	-0.0452283	0	0	-0.276119	-0.0426891	-0.180866	0	-0.0519614	0	0	-0.252803	0.0188399	-0.117638	0.0865016	-0.0852818	-0.0796313	0.154271	1.41869	0	0	0.0807543	-0.185152	-0.135716	0.31523	1.45747	0	0
0.225	0.111788	-0.147088	-0.560048	-2.17781	1.01957	-0.602846	-0.0444161	0.0153759	0.0249205	0.1592	-0.0468607	0	0	-0.279688	-0.0451299	-0.181984	0	-0.0539848	0	0	-0.249617	0.021423	-0.114348	0.0804282	-0.0877045	-0.0593676	0.158911	1.39468	0	0	0.0770336	-0.182944	-0.121728	0.322041	1.42878	0	0
0.233333	0.109199	-0.147918	-0.557942	-2.17614	1.01973	-0.600557	-0.0506196	0.0183561	0.0211341	0.150024	-0.049598	0	0	-0.283324	-0.0484151	-0.18172	0	-0.0522606	0	0	-0.245712	0.0246512	-0.11033	0.0754314	-0.092002	-0.0784921	0.153261	1.40814	0	0	0.0771715	-0.182729	-0.13371	0.333954	1.46062	0	0
0.241667	0.106676	-0.147143	-0.553951	-2.17617	1.01979	-0.598876	-0.0518199	0.0205538	0.0172241	0.143991	-0.0540058	0	0	-0.280458	-0.0521002	-0.17727	0	-0.0527718	0	0	-0.243184	0.0264834	-0.110554	0.0790719	-0.0926979	-0.115532	0.142412	1.45852	0	0	0.0785042	-0.180453	-0.137123	0.337765	1.43314	0	0
0.25	0.103378	-0.149234	-0.550335	-2.1745	1.01979	-0.597169	-0.0563513	0.0245595	0.00617295	0.137379	-0.0545022	0	0	-0.281482	-0.0575323	-0.177784	0	-0.0478237	0	0	-0.238593	0.031836	-0.110568	0.0652555	-0.100482	0.0165929	0.157767	1.25864	0	0	0.0727216	-0.181646	-0.08471	0.348425	1.30257	0	0
0.258333	0.102326	-0.147412	-0.549467	-2.17381	1.01989	-0.595008	-0.061841	0.0253227	0.0136903	0.126748	-0.0590211	0	0	-0.282019	-0.0582878	-0.176017	0	-0.0524327	0	0	-0.236044	0.0311276	-0.107757	0.0701141	-0.0991807	-0.091231	0.144195	1.41217	0	0	0.0749653	-0.176281	-0.129494	0.348937	1.40219	0	0
0.266667	0.100766	-0.147636	-0.548814	-2.17226	1.01975	-0.592601	-0.0658883	0.0282212	0.0138553	0.118032	-0.0614681	0	0	-0.281412	-0.0612748	-0.174953	0	-0.0518517	0	0	-0.232455	0.0327506	-0.105552	0.0677803	-0.101305	-0.0884717	0.143823	1.40994	0	0	0.0733489	-0.175423	-0.128	0.357339	1.39361	0	0
0.275	0.0981035	-0.147632	-0.546556	-2.17123	1.01969	-0.590453	-0.0707088	0.0316055	0.0126813	0.107517	-0.0647223	0	0	-0.282164	-0.0642824	-0.171892	0	-0.0516768	0	0	-0.228646	0.035037	-0.102834	0.0655883	-0.103655	-0.0985904	0.139804	1.4185	0	0	0.0719438	-0.173916	-0.130342	0.367261	1.39419	0	0
0.283333	0.096689	-0.148545	-0.543008	-2.17033	1.01981	-0.588583	-0.0754552	0.0345777	0.000718623	0.101223	-0.0657295	0	0	-0.283133	-0.0677728	-0.172593	0	-0.048802	0	0	-0.22634	0.0376477	-0.102892	0.0564297	-0.109179	0.0134877	0.149018	1.26027	0	0	0.0663963	-0.17618	-0.0964393	0.384856	1.30067	0	0
0.291667	0.0947324	-0.146738	-0.542205	-2.16888	1.0198	-0.586159	-0.0823714	0.0361759	0.0115668	0.0875933	-0.0720098	0	0	-0.283414	-0.0686935	-0.171931	0	-0.050766	0	0	-0.221708	0.0380274	-0.0983226	0.0607596	-0.108717	-0.114354	0.132972	1.43483	0	0	0.0664206	-0.169832	-0.136517	0.389039	1.39672	0	0
0.3	0.0931204	-0.145995	-0.541272	-2.16774	1.01976	-0.584054	-0.0879812	0.0380361	0.0133161	0.077878	-0.0753901	0	0	-0.284174	-0.0703453	-0.172663	0	-0.0502859	0	0	-0.218679	0.038814	-0.0960836	0.0588183	-0.111359	-0.118075	0.131345	1.4325	0	0	0.065016	-0.168291	-0.139077	0.396122	1.39225	0	0
0.308333	0.0909482	-0.144931	-0.539294	-2.16691	1.01957	-0.581942	-0.0936016	0.0402392	0.0143928	0.0663084	-0.0792286	0	0	-0.283197	-0.0726061	-0.171751	0	-0.0480631	0	0	-0.213725	0.0399389	-0.0947428	0.0571674	-0.113616	-0.126693	0.128797	1.43907	0	0	0.0640178	-0.167244	-0.137661	0.400786	1.3889	0	0
0.316667	0.0892596	-0.146017	-0.538523	-2.16637	1.01954	-0.580032	-0.0971365	0.0434848	0.00615564	0.0612521	-0.0780201	0	0	-0.283735	-0.075899	-0.174897	0	-0.0439052	0	0	-0.212428	0.0418633	-0.0948364	0.0493078	-0.118493	-0.000423997	0.142248	1.26117	0	0	0.0590311	-0.169903	-0.109131	0.41415	1.29987	0	0
